<svg width="100" height="78" viewBox="0 0 100 78" fill="none" xmlns="http://www.w3.org/2000/svg">
<path fill-rule="evenodd" clip-rule="evenodd" d="M62.867 0.284947C63.5594 0.515351 64.1997 0.87993 64.7513 1.35786C65.3028 1.83578 65.7548 2.41769 66.0814 3.07034C66.4079 3.72299 66.6027 4.43358 66.6546 5.16153C66.7065 5.88948 66.6144 6.62052 66.3837 7.31289L44.161 73.9811C43.6954 75.3795 42.6933 76.5355 41.3753 77.195C40.0573 77.8546 38.5313 77.9635 37.133 77.4979C35.7347 77.0323 34.5786 76.0303 33.9191 74.7123C33.2596 73.3943 33.1507 71.8683 33.6163 70.4699L55.839 3.8017C56.0694 3.10922 56.434 2.46893 56.9119 1.9174C57.3899 1.36587 57.9718 0.913898 58.6244 0.587316C59.2771 0.260735 59.9877 0.0659384 60.7156 0.0140569C61.4436 -0.0378247 62.1746 0.0542252 62.867 0.284947ZM26.1494 18.2965C27.191 19.3383 27.7761 20.7512 27.7761 22.2244C27.7761 23.6975 27.191 25.1104 26.1494 26.1522L13.4102 38.8914L26.1494 51.6306C26.6801 52.1431 27.1033 52.7561 27.3945 53.434C27.6856 54.1118 27.8389 54.8408 27.8453 55.5785C27.8517 56.3162 27.7112 57.0477 27.4318 57.7305C27.1525 58.4133 26.7399 59.0336 26.2183 59.5552C25.6967 60.0768 25.0764 60.4894 24.3936 60.7687C23.7108 61.0481 22.9792 61.1886 22.2416 61.1822C21.5039 61.1758 20.7749 61.0226 20.097 60.7314C19.4192 60.4402 18.8062 60.017 18.2937 59.4864L1.62663 42.8193C0.5851 41.7774 0 40.3646 0 38.8914C0 37.4182 0.5851 36.0054 1.62663 34.9635L18.2937 18.2965C19.3355 17.255 20.7484 16.6699 22.2216 16.6699C23.6947 16.6699 25.1076 17.255 26.1494 18.2965ZM73.8506 18.2965C74.8924 17.255 76.3053 16.6699 77.7784 16.6699C79.2516 16.6699 80.6645 17.255 81.7063 18.2965L98.3734 34.9635C99.4149 36.0054 100 37.4182 100 38.8914C100 40.3646 99.4149 41.7774 98.3734 42.8193L81.7063 59.4864C81.1938 60.017 80.5808 60.4402 79.903 60.7314C79.2251 61.0226 78.4961 61.1758 77.7584 61.1822C77.0208 61.1886 76.2892 61.0481 75.6064 60.7687C74.9236 60.4894 74.3033 60.0768 73.7817 59.5552C73.2601 59.0336 72.8475 58.4133 72.5682 57.7305C72.2888 57.0477 72.1483 56.3162 72.1547 55.5785C72.1611 54.8408 72.3144 54.1118 72.6055 53.434C72.8967 52.7561 73.3199 52.1431 73.8506 51.6306L86.5898 38.8914L73.8506 26.1522C72.809 25.1104 72.2239 23.6975 72.2239 22.2244C72.2239 20.7512 72.809 19.3383 73.8506 18.2965Z" fill="#212121"/>
</svg>
