<svg width="100" height="100" viewBox="0 0 100 100" fill="none" xmlns="http://www.w3.org/2000/svg">
<path d="M75.4818 4.35362C76.7973 2.99158 78.3709 1.90517 80.1107 1.15778C81.8506 0.41039 83.7219 0.0169926 85.6154 0.000538436C87.5089 -0.0159158 89.3868 0.344904 91.1393 1.06194C92.8919 1.77898 94.4842 2.83788 95.8231 4.17686C97.1621 5.51583 98.221 7.10806 98.938 8.86065C99.6551 10.6132 100.016 12.4911 99.9995 14.3846C99.983 16.2781 99.5896 18.1494 98.8422 19.8893C98.0948 21.6291 97.0084 23.2027 95.6464 24.5182L89.992 30.1726L69.8274 10.008L75.4818 4.35362ZM59.7451 20.0903L0 79.8354V100H20.1646L79.9168 40.2549L59.738 20.0903H59.7451Z" fill="#212121"/>
</svg>
