<?xml version="1.0" encoding="utf-8"?>
<!-- Generator: Adobe Illustrator 24.3.0, SVG Export Plug-In . SVG Version: 6.00 Build 0)  -->
<svg version="1.1" xmlns="http://www.w3.org/2000/svg" xmlns:xlink="http://www.w3.org/1999/xlink" x="0px" y="0px"
	 viewBox="0 0 216 216" style="enable-background:new 0 0 216 216;" xml:space="preserve">
<style type="text/css">
	.st0{display:none;}
	.st1{display:inline;fill:none;stroke:#332C2C;stroke-width:8.9784;stroke-linecap:round;stroke-miterlimit:10;}
	.st2{display:inline;fill:none;stroke:#332C2C;stroke-width:8.9784;stroke-linejoin:round;stroke-miterlimit:10;}
	.st3{display:inline;fill:none;stroke:#332C2C;stroke-width:8.9788;stroke-miterlimit:10;}
	.st4{display:inline;fill:#FFFFFF;stroke:#332C2C;stroke-width:8.9784;stroke-linejoin:round;stroke-miterlimit:10;}
	.st5{display:inline;fill:#332C2C;}
	.st6{display:inline;}
	.st7{fill:#332C2C;}
	.st8{fill:#A7F9D8;}
	.st9{fill:#4F4FC6;}
	.st10{fill:#E8D358;}
	.st11{fill:#212226;}
	.st12{fill:#FFFFFF;}
</style>
<g id="Reference" class="st0">
</g>
<g id="Base" class="st0">
	<line class="st1" x1="40.28" y1="75.04" x2="56.93" y2="75.04"/>
	<path class="st2" d="M24.63,125.64c0-28.01,5.79-36.2,15.66-50.6h-10c-10.71,0-19.39-8.68-19.39-19.39v-0.23
		c0-10.71,8.68-19.39,19.39-19.39h83.96c49.49,0,89.62,40.12,89.62,89.62c0,1.44-0.04,2.87-0.11,4.29
		c-10.08-2.77-20.88-4.29-32.13-4.29c-54.65,0-98.61,16.54-99.93,60.43C71.69,186.07,24.63,191.74,24.63,125.64z"/>
	<path class="st2" d="M126.3,152.25c13.94,0,13.66-15.07,13.66-15.07v-9.69"/>
	<path class="st2" d="M151.68,152.25c13.94,0,13.66-15.07,13.66-15.07v-9.69"/>
	<path class="st2" d="M177.05,152.25c13.94,0,13.66-15.07,13.66-15.07v-9.69"/>
	<line class="st2" x1="199.08" y1="164.59" x2="99.54" y2="164.59"/>
	<path class="st3" d="M132.54,186.2h-25.09c-1.99,0-3.6-1.61-3.6-3.6v-18.01h32.29v18.01C136.14,184.58,134.53,186.2,132.54,186.2z"
		/>
	<path class="st3" d="M191.46,186.2h-25.09c-1.99,0-3.6-1.61-3.6-3.6v-18.01h32.29v18.01C195.06,184.58,193.45,186.2,191.46,186.2z"
		/>
	<circle class="st4" cx="76.26" cy="108.41" r="13.42"/>
</g>
<g id="Expanded" class="st0">
	<path class="st5" d="M114.24,31.54H30.29C17.12,31.54,6.4,42.25,6.4,55.42v0.23c0,13.17,10.71,23.88,23.88,23.88h1.56
		c-7.19,11.14-11.71,21.69-11.71,46.11c0,24.66,6.33,42.78,18.81,53.85c11.17,9.91,24.06,11.19,29.99,11.19
		c1.91,0,3.1-0.13,3.29-0.15c2.2-0.27,3.88-2.1,3.95-4.32c1.02-34.01,29.98-47.85,59.3-53.12l0,4.17c0,0.05-0.04,5.3-2.96,8.28
		c-1.47,1.5-3.5,2.22-6.22,2.22v8.98c5.1,0,9.47-1.7,12.62-4.91c5.54-5.64,5.55-13.82,5.53-14.65v-5.44
		c5.62-0.7,11.15-1.13,16.39-1.36l0,6.89c0,0.05-0.04,5.3-2.96,8.28c-1.47,1.5-3.5,2.22-6.22,2.22v8.98c5.1,0,9.47-1.7,12.62-4.91
		c5.53-5.64,5.55-13.82,5.53-14.65v-7.03c0.6,0,1.2-0.01,1.79-0.01c4.91,0,9.78,0.31,14.6,0.91l0,6.21c0,0.05-0.04,5.3-2.96,8.28
		c-1.47,1.5-3.5,2.22-6.22,2.22v8.98c5.1,0,9.47-1.7,12.62-4.91c5.53-5.64,5.55-13.82,5.53-14.65v-4.67
		c2.48,0.51,4.93,1.09,7.36,1.76c1.31,0.36,2.72,0.11,3.82-0.7c1.1-0.8,1.78-2.06,1.85-3.42c0.08-1.61,0.11-3.08,0.11-4.5
		C208.35,73.75,166.13,31.54,114.24,31.54z M171.62,121.15c-63.79,0-100.55,21.44-104.16,60.51c-5.1-0.24-14.57-1.74-22.66-8.97
		c-10.41-9.31-15.69-25.13-15.69-47.04c0-25.35,4.8-33.33,13.54-46.11h14.28c2.48,0,4.49-2.01,4.49-4.49c0-2.48-2.01-4.49-4.49-4.49
		H40.28h-10c-8.22,0-14.9-6.69-14.9-14.9v-0.23c0-8.22,6.69-14.9,14.9-14.9h83.96c46.46,0,84.35,37.41,85.12,83.7
		C190.33,122.18,181.02,121.15,171.62,121.15z"/>
	<path class="st5" d="M199.08,160.1h-40.8h-17.65h-41.1h-0.17v22.01c0,4.73,3.84,8.57,8.57,8.57h24.13c4.73,0,8.57-3.85,8.57-8.57
		v-13.03h17.65v13.03c0,4.73,3.85,8.57,8.57,8.57h24.13c4.73,0,8.57-3.85,8.57-8.57V160.1H199.08z M131.65,181.71h-23.31v-12.63
		h23.31V181.71z M190.57,181.71h-23.31v-12.63h23.31V181.71z"/>
	<g class="st6">
		<path class="st7" d="M76.26,126.32c-9.87,0-17.91-8.03-17.91-17.91c0-9.87,8.03-17.91,17.91-17.91c9.87,0,17.91,8.03,17.91,17.91
			C94.16,118.29,86.13,126.32,76.26,126.32z M76.26,99.48c-4.92,0-8.93,4.01-8.93,8.93c0,4.92,4.01,8.93,8.93,8.93
			c4.92,0,8.93-4.01,8.93-8.93C85.19,103.49,81.18,99.48,76.26,99.48z"/>
	</g>
</g>
<g id="Web_Color">
	<g id="Color">
		<polygon class="st8" points="167,168.54 181.84,183.39 165.34,183.39 		"/>
		<path class="st9" d="M24.63,125.64c0-28.01,5.79-36.2,15.66-50.6h-10c-10.71,0-19.39-8.68-19.39-19.39v-0.23
			c0-10.71,8.68-19.39,19.39-19.39h83.96c49.49,0,89.62,40.12,89.62,89.62c0,1.44-0.04,2.87-0.11,4.29
			c-10.08-2.77-20.88-4.29-32.13-4.29c-54.65,0-98.61,16.54-99.93,60.43C71.69,186.07,24.63,191.74,24.63,125.64z"/>
		<circle class="st10" cx="82.15" cy="114.22" r="13.24"/>
		<polyline class="st8" points="108.34,169.08 125.21,185.95 106.45,185.95 108.34,169.08 		"/>
	</g>
	<g id="Logo_Outlne_2_">
		<path class="st11" d="M114.24,31.54H30.29C17.12,31.54,6.4,42.25,6.4,55.42v0.23c0,13.17,10.71,23.88,23.88,23.88h1.56
			c-7.19,11.14-11.71,21.69-11.71,46.11c0,24.66,6.33,42.78,18.81,53.85c11.17,9.91,24.06,11.19,29.99,11.19
			c1.91,0,3.1-0.13,3.29-0.15c2.2-0.27,3.88-2.1,3.95-4.32c1.02-34.01,29.98-47.85,59.3-53.12l0,4.17c0,0.05-0.04,5.3-2.96,8.28
			c-1.47,1.5-3.5,2.22-6.22,2.22v8.98c5.1,0,9.47-1.7,12.62-4.91c5.54-5.64,5.55-13.82,5.53-14.65v-5.44
			c5.62-0.7,11.15-1.13,16.39-1.36l0,6.89c0,0.05-0.04,5.3-2.96,8.28c-1.47,1.5-3.5,2.22-6.22,2.22v8.98c5.1,0,9.47-1.7,12.62-4.91
			c5.53-5.64,5.55-13.82,5.53-14.65v-7.03c0.6,0,1.2-0.01,1.79-0.01c4.91,0,9.78,0.31,14.6,0.91l0,6.21c0,0.05-0.04,5.3-2.96,8.28
			c-1.47,1.5-3.5,2.22-6.22,2.22v8.98c5.1,0,9.47-1.7,12.62-4.91c5.53-5.64,5.55-13.82,5.53-14.65v-4.67
			c2.48,0.51,4.93,1.09,7.36,1.76c1.31,0.36,2.72,0.11,3.82-0.7c1.1-0.8,1.78-2.06,1.85-3.42c0.08-1.61,0.11-3.08,0.11-4.5
			C208.35,73.75,166.13,31.54,114.24,31.54z M171.62,121.15c-63.79,0-100.55,21.44-104.16,60.51c-5.1-0.24-14.57-1.74-22.66-8.97
			c-10.41-9.31-15.69-25.13-15.69-47.04c0-25.35,4.8-33.33,13.54-46.11h14.28c2.48,0,4.49-2.01,4.49-4.49
			c0-2.48-2.01-4.49-4.49-4.49H40.28h-10c-8.22,0-14.9-6.69-14.9-14.9v-0.23c0-8.22,6.69-14.9,14.9-14.9h83.96
			c46.46,0,84.35,37.41,85.12,83.7C190.33,122.18,181.02,121.15,171.62,121.15z"/>
		<path class="st11" d="M199.08,160.1h-40.8h-17.65h-41.1h-0.17v22.01c0,4.73,3.84,8.57,8.57,8.57h24.13c4.73,0,8.57-3.85,8.57-8.57
			v-13.03h17.65v13.03c0,4.73,3.85,8.57,8.57,8.57h24.13c4.73,0,8.57-3.85,8.57-8.57V160.1H199.08z M131.65,181.71h-23.31v-12.63
			h23.31V181.71z M190.57,181.71h-23.31v-12.63h23.31V181.71z"/>
		<g>
			<path class="st11" d="M76.26,126.32c-9.87,0-17.91-8.03-17.91-17.91c0-9.87,8.03-17.91,17.91-17.91
				c9.87,0,17.91,8.03,17.91,17.91C94.16,118.29,86.13,126.32,76.26,126.32z M76.26,99.48c-4.92,0-8.93,4.01-8.93,8.93
				c0,4.92,4.01,8.93,8.93,8.93c4.92,0,8.93-4.01,8.93-8.93C85.19,103.49,81.18,99.48,76.26,99.48z"/>
		</g>
	</g>
</g>
<g id="Layer_6">
	<rect x="341.29" y="-14.17" class="st12" width="267.95" height="61.76"/>
</g>
</svg>
