<?xml version="1.0" encoding="utf-8"?>
<!-- Generator: Adobe Illustrator 24.3.0, SVG Export Plug-In . SVG Version: 6.00 Build 0)  -->
<svg version="1.1" xmlns="http://www.w3.org/2000/svg" xmlns:xlink="http://www.w3.org/1999/xlink" x="0px" y="0px"
	 viewBox="0 0 216 216" style="enable-background:new 0 0 216 216;" xml:space="preserve">
<style type="text/css">
	.st0{display:none;}
	.st1{display:inline;fill:none;stroke:#332C2C;stroke-width:8.9784;stroke-linecap:round;stroke-miterlimit:10;}
	.st2{display:inline;fill:none;stroke:#332C2C;stroke-width:8.9784;stroke-linejoin:round;stroke-miterlimit:10;}
	.st3{display:inline;fill:none;stroke:#332C2C;stroke-width:8.9788;stroke-miterlimit:10;}
	.st4{display:inline;fill:#FFFFFF;stroke:#332C2C;stroke-width:8.9784;stroke-linejoin:round;stroke-miterlimit:10;}
	.st5{display:inline;fill:#332C2C;}
	.st6{display:inline;}
	.st7{fill:#332C2C;}
	.st8{fill:#A7F9D8;}
	.st9{fill:#4F4FC6;}
	.st10{fill:#E8D358;}
	.st11{fill:#212226;}
	.st12{fill:#FFFFFF;}
	.st13{fill:none;stroke:#466658;stroke-width:1.1096;stroke-miterlimit:10;}
	.st14{fill:none;stroke:#6A9982;stroke-width:1.1096;stroke-miterlimit:10;}
	.st15{fill:#A1E5C1;}
</style>
<g id="Reference" class="st0">
</g>
<g id="Base" class="st0">
	<line class="st1" x1="40.28" y1="75.04" x2="56.93" y2="75.04"/>
	<path class="st2" d="M24.63,125.64c0-28.01,5.79-36.2,15.66-50.6h-10c-10.71,0-19.39-8.68-19.39-19.39v-0.23
		c0-10.71,8.68-19.39,19.39-19.39h83.96c49.49,0,89.62,40.12,89.62,89.62c0,1.44-0.04,2.87-0.11,4.29
		c-10.08-2.77-20.88-4.29-32.13-4.29c-54.65,0-98.61,16.54-99.93,60.43C71.69,186.07,24.63,191.74,24.63,125.64z"/>
	<path class="st2" d="M126.3,152.25c13.94,0,13.66-15.07,13.66-15.07v-9.69"/>
	<path class="st2" d="M151.68,152.25c13.94,0,13.66-15.07,13.66-15.07v-9.69"/>
	<path class="st2" d="M177.05,152.25c13.94,0,13.66-15.07,13.66-15.07v-9.69"/>
	<line class="st2" x1="199.08" y1="164.59" x2="99.54" y2="164.59"/>
	<path class="st3" d="M132.54,186.2h-25.09c-1.99,0-3.6-1.61-3.6-3.6v-18.01h32.29v18.01C136.14,184.58,134.53,186.2,132.54,186.2z"
		/>
	<path class="st3" d="M191.46,186.2h-25.09c-1.99,0-3.6-1.61-3.6-3.6v-18.01h32.29v18.01C195.06,184.58,193.45,186.2,191.46,186.2z"
		/>
	<circle class="st4" cx="76.26" cy="108.41" r="13.42"/>
</g>
<g id="Expanded" class="st0">
	<path class="st5" d="M114.24,31.54H30.29C17.12,31.54,6.4,42.25,6.4,55.42v0.23c0,13.17,10.71,23.88,23.88,23.88h1.56
		c-7.19,11.14-11.71,21.69-11.71,46.11c0,24.66,6.33,42.78,18.81,53.85c11.17,9.91,24.06,11.19,29.99,11.19
		c1.91,0,3.1-0.13,3.29-0.15c2.2-0.27,3.88-2.1,3.95-4.32c1.02-34.01,29.98-47.85,59.3-53.12l0,4.17c0,0.05-0.04,5.3-2.96,8.28
		c-1.47,1.5-3.5,2.22-6.22,2.22v8.98c5.1,0,9.47-1.7,12.62-4.91c5.54-5.64,5.55-13.82,5.53-14.65v-5.44
		c5.62-0.7,11.15-1.13,16.39-1.36l0,6.89c0,0.05-0.04,5.3-2.96,8.28c-1.47,1.5-3.5,2.22-6.22,2.22v8.98c5.1,0,9.47-1.7,12.62-4.91
		c5.53-5.64,5.55-13.82,5.53-14.65v-7.03c0.6,0,1.2-0.01,1.79-0.01c4.91,0,9.78,0.31,14.6,0.91l0,6.21c0,0.05-0.04,5.3-2.96,8.28
		c-1.47,1.5-3.5,2.22-6.22,2.22v8.98c5.1,0,9.47-1.7,12.62-4.91c5.53-5.64,5.55-13.82,5.53-14.65v-4.67
		c2.48,0.51,4.93,1.09,7.36,1.76c1.31,0.36,2.72,0.11,3.82-0.7c1.1-0.8,1.78-2.06,1.85-3.42c0.08-1.61,0.11-3.08,0.11-4.5
		C208.35,73.75,166.13,31.54,114.24,31.54z M171.62,121.15c-63.79,0-100.55,21.44-104.16,60.51c-5.1-0.24-14.57-1.74-22.66-8.97
		c-10.41-9.31-15.69-25.13-15.69-47.04c0-25.35,4.8-33.33,13.54-46.11h14.28c2.48,0,4.49-2.01,4.49-4.49c0-2.48-2.01-4.49-4.49-4.49
		H40.28h-10c-8.22,0-14.9-6.69-14.9-14.9v-0.23c0-8.22,6.69-14.9,14.9-14.9h83.96c46.46,0,84.35,37.41,85.12,83.7
		C190.33,122.18,181.02,121.15,171.62,121.15z"/>
	<path class="st5" d="M199.08,160.1h-40.8h-17.65h-41.1h-0.17v22.01c0,4.73,3.84,8.57,8.57,8.57h24.13c4.73,0,8.57-3.85,8.57-8.57
		v-13.03h17.65v13.03c0,4.73,3.85,8.57,8.57,8.57h24.13c4.73,0,8.57-3.85,8.57-8.57V160.1H199.08z M131.65,181.71h-23.31v-12.63
		h23.31V181.71z M190.57,181.71h-23.31v-12.63h23.31V181.71z"/>
	<g class="st6">
		<path class="st7" d="M76.26,126.32c-9.87,0-17.91-8.03-17.91-17.91c0-9.87,8.03-17.91,17.91-17.91c9.87,0,17.91,8.03,17.91,17.91
			C94.16,118.29,86.13,126.32,76.26,126.32z M76.26,99.48c-4.92,0-8.93,4.01-8.93,8.93c0,4.92,4.01,8.93,8.93,8.93
			c4.92,0,8.93-4.01,8.93-8.93C85.19,103.49,81.18,99.48,76.26,99.48z"/>
	</g>
</g>
<g id="Web_Color">
	<g id="Color">
		<polygon class="st8" points="167,168.54 181.84,183.39 165.34,183.39 		"/>
		<path class="st9" d="M24.63,125.64c0-28.01,5.79-36.2,15.66-50.6h-10c-10.71,0-19.39-8.68-19.39-19.39v-0.23
			c0-10.71,8.68-19.39,19.39-19.39h83.96c49.49,0,89.62,40.12,89.62,89.62c0,1.44-0.04,2.87-0.11,4.29
			c-10.08-2.77-20.88-4.29-32.13-4.29c-54.65,0-98.61,16.54-99.93,60.43C71.69,186.07,24.63,191.74,24.63,125.64z"/>
		<circle class="st10" cx="82.15" cy="114.22" r="13.24"/>
		<polyline class="st8" points="108.34,169.08 125.21,185.95 106.45,185.95 108.34,169.08 		"/>
	</g>
	<g id="Logo_Outlne_2_">
		<path class="st11" d="M114.24,31.54H30.29C17.12,31.54,6.4,42.25,6.4,55.42v0.23c0,13.17,10.71,23.88,23.88,23.88h1.56
			c-7.19,11.14-11.71,21.69-11.71,46.11c0,24.66,6.33,42.78,18.81,53.85c11.17,9.91,24.06,11.19,29.99,11.19
			c1.91,0,3.1-0.13,3.29-0.15c2.2-0.27,3.88-2.1,3.95-4.32c1.02-34.01,29.98-47.85,59.3-53.12l0,4.17c0,0.05-0.04,5.3-2.96,8.28
			c-1.47,1.5-3.5,2.22-6.22,2.22v8.98c5.1,0,9.47-1.7,12.62-4.91c5.54-5.64,5.55-13.82,5.53-14.65v-5.44
			c5.62-0.7,11.15-1.13,16.39-1.36l0,6.89c0,0.05-0.04,5.3-2.96,8.28c-1.47,1.5-3.5,2.22-6.22,2.22v8.98c5.1,0,9.47-1.7,12.62-4.91
			c5.53-5.64,5.55-13.82,5.53-14.65v-7.03c0.6,0,1.2-0.01,1.79-0.01c4.91,0,9.78,0.31,14.6,0.91l0,6.21c0,0.05-0.04,5.3-2.96,8.28
			c-1.47,1.5-3.5,2.22-6.22,2.22v8.98c5.1,0,9.47-1.7,12.62-4.91c5.53-5.64,5.55-13.82,5.53-14.65v-4.67
			c2.48,0.51,4.93,1.09,7.36,1.76c1.31,0.36,2.72,0.11,3.82-0.7c1.1-0.8,1.78-2.06,1.85-3.42c0.08-1.61,0.11-3.08,0.11-4.5
			C208.35,73.75,166.13,31.54,114.24,31.54z M171.62,121.15c-63.79,0-100.55,21.44-104.16,60.51c-5.1-0.24-14.57-1.74-22.66-8.97
			c-10.41-9.31-15.69-25.13-15.69-47.04c0-25.35,4.8-33.33,13.54-46.11h14.28c2.48,0,4.49-2.01,4.49-4.49
			c0-2.48-2.01-4.49-4.49-4.49H40.28h-10c-8.22,0-14.9-6.69-14.9-14.9v-0.23c0-8.22,6.69-14.9,14.9-14.9h83.96
			c46.46,0,84.35,37.41,85.12,83.7C190.33,122.18,181.02,121.15,171.62,121.15z"/>
		<path class="st11" d="M199.08,160.1h-40.8h-17.65h-41.1h-0.17v22.01c0,4.73,3.84,8.57,8.57,8.57h24.13c4.73,0,8.57-3.85,8.57-8.57
			v-13.03h17.65v13.03c0,4.73,3.85,8.57,8.57,8.57h24.13c4.73,0,8.57-3.85,8.57-8.57V160.1H199.08z M131.65,181.71h-23.31v-12.63
			h23.31V181.71z M190.57,181.71h-23.31v-12.63h23.31V181.71z"/>
		<g>
			<path class="st11" d="M76.26,126.32c-9.87,0-17.91-8.03-17.91-17.91c0-9.87,8.03-17.91,17.91-17.91
				c9.87,0,17.91,8.03,17.91,17.91C94.16,118.29,86.13,126.32,76.26,126.32z M76.26,99.48c-4.92,0-8.93,4.01-8.93,8.93
				c0,4.92,4.01,8.93,8.93,8.93c4.92,0,8.93-4.01,8.93-8.93C85.19,103.49,81.18,99.48,76.26,99.48z"/>
		</g>
	</g>
</g>
<g id="Layer_6">
	<rect x="341.29" y="-14.17" class="st12" width="267.95" height="61.76"/>
	<g>
		<path class="st8" d="M406.83-31.69c0,0,15.21,0.71,14.33,8.21S409.64-8.66,409.64,2.95c0,25.89,55.09,20.35,55.09,48.74
			c0,26.54-129.08,0.18-129.08,0.18l1.18-76.24L406.83-31.69z"/>
		<path class="st13" d="M393.25-31.69c0,0,15.21,0.71,14.33,8.21c-0.89,7.5-11.52,14.81-11.52,26.43
			c0,25.89,55.09,20.35,55.09,48.74c0,26.54-129.08,0.18-129.08,0.18l1.18-76.24L393.25-31.69z"/>
		<path class="st14" d="M378.77-31.69c0,0,15.21,0.71,14.33,8.21S381.58-8.66,381.58,2.95c0,25.89,55.09,20.35,55.09,48.74
			c0,26.54-129.08,0.18-129.08,0.18l1.18-76.24L378.77-31.69z"/>
		<path class="st15" d="M360.46-31.69c0,0,15.21,0.71,14.33,8.21c-0.89,7.5-11.52,14.81-11.52,26.43
			c0,25.89,55.09,20.35,55.09,48.74c0,26.54-129.08,0.18-129.08,0.18l1.18-76.24L360.46-31.69z"/>
	</g>
	<g>
		<polygon class="st8" points="484.32,31.57 488.16,35.41 483.89,35.41 		"/>
		<path class="st9" d="M447.5,20.48c0-7.24,1.5-9.36,4.05-13.09h-2.59c-2.77,0-5.02-2.25-5.02-5.02V2.31c0-2.77,2.25-5.02,5.02-5.02
			h21.71c12.8,0,23.18,10.38,23.18,23.18c0,0.37-0.01,0.74-0.03,1.11c-2.61-0.72-5.4-1.11-8.31-1.11c-14.13,0-25.5,4.28-25.84,15.63
			C459.67,36.1,447.5,37.57,447.5,20.48z"/>
		<circle class="st10" cx="462.38" cy="17.52" r="3.42"/>
		<polyline class="st8" points="469.15,31.71 473.51,36.07 468.66,36.07 469.15,31.71 		"/>
		<g id="Logo_Outlne_1_">
			<path class="st11" d="M470.68-3.86h-21.71c-3.41,0-6.18,2.77-6.18,6.18v0.06c0,3.41,2.77,6.18,6.18,6.18h0.4
				c-1.86,2.88-3.03,5.61-3.03,11.93c0,6.38,1.64,11.06,4.87,13.93c2.89,2.56,6.22,2.89,7.76,2.89c0.49,0,0.8-0.03,0.85-0.04
				c0.57-0.07,1-0.54,1.02-1.12c0.26-8.8,7.75-12.38,15.34-13.74l0,1.08c0,0.01-0.01,1.37-0.77,2.14c-0.38,0.39-0.91,0.58-1.61,0.58
				v2.32c1.32,0,2.45-0.44,3.26-1.27c1.43-1.46,1.43-3.57,1.43-3.79v-1.41c1.45-0.18,2.88-0.29,4.24-0.35l0,1.78
				c0,0.01-0.01,1.37-0.77,2.14c-0.38,0.39-0.91,0.58-1.61,0.58v2.32c1.32,0,2.45-0.44,3.26-1.27c1.43-1.46,1.43-3.57,1.43-3.79
				v-1.82c0.16,0,0.31,0,0.46,0c1.27,0,2.53,0.08,3.78,0.24l0,1.61c0,0.01-0.01,1.37-0.77,2.14c-0.38,0.39-0.91,0.58-1.61,0.58v2.32
				c1.32,0,2.45-0.44,3.26-1.27c1.43-1.46,1.43-3.57,1.43-3.79v-1.21c0.64,0.13,1.28,0.28,1.9,0.45c0.34,0.09,0.7,0.03,0.99-0.18
				c0.29-0.21,0.46-0.53,0.48-0.88c0.02-0.42,0.03-0.8,0.03-1.16C495.02,7.06,484.1-3.86,470.68-3.86z M485.52,19.31
				c-16.5,0-26.01,5.54-26.94,15.65c-1.32-0.06-3.77-0.45-5.86-2.32c-2.69-2.41-4.06-6.5-4.06-12.17c0-6.56,1.24-8.62,3.5-11.93
				h3.69c0.64,0,1.16-0.52,1.16-1.16s-0.52-1.16-1.16-1.16h-4.3h-2.59c-2.13,0-3.85-1.73-3.85-3.85V2.31c0-2.13,1.73-3.85,3.85-3.85
				h21.71c12.02,0,21.82,9.68,22.01,21.65C490.36,19.58,487.95,19.31,485.52,19.31z"/>
			<path class="st11" d="M492.62,29.39h-10.55h-4.56h-10.63h-0.04v5.69c0,1.22,0.99,2.22,2.22,2.22h6.24c1.22,0,2.22-0.99,2.22-2.22
				v-3.37h4.56v3.37c0,1.22,0.99,2.22,2.22,2.22h6.24c1.22,0,2.22-0.99,2.22-2.22v-5.69H492.62z M475.18,34.98h-6.03v-3.27h6.03
				V34.98z M490.42,34.98h-6.03v-3.27h6.03V34.98z"/>
			<g>
				<path class="st11" d="M460.85,20.65c-2.55,0-4.63-2.08-4.63-4.63c0-2.55,2.08-4.63,4.63-4.63c2.55,0,4.63,2.08,4.63,4.63
					C465.48,18.57,463.41,20.65,460.85,20.65z M460.85,13.71c-1.27,0-2.31,1.04-2.31,2.31c0,1.27,1.04,2.31,2.31,2.31
					c1.27,0,2.31-1.04,2.31-2.31C463.16,14.75,462.13,13.71,460.85,13.71z"/>
			</g>
		</g>
	</g>
	<rect x="505.48" y="9.07" style="fill:none;" width="83.71" height="10.39"/>
	<text transform="matrix(1 0 0 1 505.4796 14.8295)" class="st11" style="font-family:'Manrope-Bold'; font-size:8px;">front-end dev</text>
	<rect x="516.99" y="18.18" style="fill:none;" width="83.71" height="10.39"/>
	<text transform="matrix(1 0 0 1 516.9932 23.9435)" style="fill:#646464; font-family:'Manrope-Bold'; font-size:8px;">graphic designer</text>
	<rect x="595.8" y="-15.34" class="st9" width="21.51" height="64.67"/>
	<rect x="592.66" y="-16.73" class="st9" width="1.47" height="67.26"/>
	<g>
		<g>
			<path class="st9" d="M474.76,78.21c1.93,0,1.93-3,0-3C472.83,75.21,472.82,78.21,474.76,78.21L474.76,78.21z"/>
		</g>
	</g>
</g>
</svg>
